<svg width="30" height="30" viewBox="0 0 30 30" fill="none" xmlns="http://www.w3.org/2000/svg">
<path d="M27.1175 5.49914C27.1175 5.49328 27.1116 5.48449 27.1116 5.47863C27.1116 5.45812 27.1087 5.43761 27.1058 5.4171C27.0794 4.41515 26.5989 3.49523 25.8021 2.88878C25.2454 2.46691 24.554 2.25597 23.8597 2.25304C23.4173 2.25304 22.972 2.25304 22.5296 2.25304H17.9593V9.16125C17.9593 9.66222 17.4144 9.96105 16.9837 9.72375C16.8636 9.65636 16.7464 9.58898 16.6234 9.5216C15.8704 9.10265 15.1146 8.67492 14.3616 8.26183C14.347 8.27062 14.3353 8.27648 14.3206 8.28527C13.4564 8.76574 12.595 9.24328 11.7308 9.72082C11.303 9.95812 10.7493 9.65929 10.7493 9.15832V2.25597H5.6839C5.18292 2.25597 4.67022 2.22668 4.17511 2.32628C3.22882 2.51671 2.37335 3.17589 1.95147 4.04308C1.72003 4.52062 1.61163 5.02746 1.61163 5.55773V21.1847C1.61163 21.6388 1.58233 22.1105 1.63507 22.5646C1.75226 23.5607 2.3089 24.4484 3.17315 24.9728C3.69757 25.2921 4.30108 25.4298 4.91339 25.4298H16.846C16.7698 25.3126 16.6907 25.1544 16.6234 25.0079C16.5589 24.8644 16.4944 24.7325 16.4359 24.5861C16.1429 23.7423 15.973 22.837 16.014 21.92C16.0316 21.5568 16.0784 21.1964 16.1517 20.8419C16.1751 20.7247 16.2044 20.6046 16.2337 20.4874C16.2718 20.3409 16.3128 20.1945 16.3626 20.0509C16.3714 20.0275 16.3773 20.004 16.386 19.9777C16.3948 19.9484 16.4066 19.922 16.4153 19.8927C16.4212 19.8722 16.43 19.8546 16.4359 19.8341C16.4446 19.8107 16.4534 19.7872 16.4622 19.7638C16.4622 19.7609 16.4622 19.7579 16.4651 19.755C16.4651 19.7521 16.4681 19.7491 16.4681 19.7462C16.4739 19.7286 16.4827 19.7111 16.4886 19.6935C16.4886 19.6935 16.4915 19.6935 16.4915 19.6905C16.4915 19.6788 16.4974 19.6671 16.5032 19.6554V19.6525C16.5062 19.6466 16.5003 19.6407 16.5003 19.6349L16.4915 19.6319H16.5003C16.5003 19.629 16.5062 19.6232 16.5091 19.6202H16.512C16.5208 19.5968 16.5325 19.5734 16.5413 19.5499C16.5501 19.5265 16.5618 19.503 16.5706 19.4796C16.5823 19.4503 16.597 19.421 16.6087 19.3946H16.6116C16.638 19.3361 16.6644 19.2804 16.6937 19.2247C16.723 19.1954 16.7171 19.1691 16.7317 19.1398C16.7435 19.1163 16.7523 19.0958 16.764 19.0724C16.7757 19.0489 16.7874 19.0284 16.7991 19.005C16.8109 18.9816 16.8226 18.9611 16.8343 18.9376C16.8812 18.8497 16.931 18.7618 16.9837 18.6739C16.9896 18.6622 16.9954 18.6534 17.0042 18.6417C17.0101 18.63 17.0159 18.6212 17.0247 18.6095C17.0276 18.6066 17.0276 18.6036 17.0306 18.6007C17.0335 18.5978 17.0335 18.5948 17.0364 18.5919C17.0511 18.5685 17.0657 18.545 17.0804 18.5216C17.0833 18.5157 17.0862 18.5128 17.0892 18.5069C17.0921 18.5011 17.098 18.4923 17.1038 18.4864C17.1038 18.4835 17.1067 18.4835 17.1067 18.4806C17.1185 18.4659 17.1273 18.4484 17.139 18.4337C17.1419 18.4278 17.1478 18.422 17.1507 18.4161C17.1653 18.3956 17.18 18.3751 17.1946 18.3546C17.2093 18.3341 17.2239 18.3136 17.2386 18.2931C17.2503 18.2784 17.262 18.2609 17.2737 18.2433C17.2855 18.2286 17.2972 18.211 17.3089 18.1964C17.3089 18.1935 17.3118 18.1935 17.3118 18.1935C17.3118 18.1905 17.3148 18.1905 17.3148 18.1876C17.3177 18.1847 17.3177 18.1818 17.3206 18.1788C17.3235 18.1759 17.3265 18.173 17.3294 18.1671C17.3616 18.1261 17.3939 18.0821 17.4261 18.0411L17.429 18.0382C17.4319 18.0353 17.4349 18.0294 17.4378 18.0265C17.4437 18.0177 17.4495 18.0118 17.4554 18.003C17.5052 17.9386 17.555 17.8771 17.6077 17.8155C17.6429 17.7745 17.6751 17.7364 17.7103 17.6954C17.7132 17.6925 17.7132 17.6896 17.7161 17.6896C17.7396 17.6632 17.7601 17.6398 17.7835 17.6134C17.7864 17.6105 17.7864 17.6075 17.7894 17.6075C17.7923 17.6046 17.7952 17.6017 17.7952 17.5987C17.804 17.59 17.8157 17.5812 17.8245 17.5724C17.8275 17.5694 17.8333 17.5694 17.8333 17.5665L17.8362 17.5636C17.8509 17.5489 17.8597 17.5372 17.8714 17.5226C17.8714 17.5226 17.8714 17.5226 17.8714 17.5196C17.8714 17.5167 17.8773 17.5109 17.8802 17.5079C17.889 17.4991 17.9007 17.4903 17.9007 17.4816L17.9095 17.4845C17.9095 17.4845 17.9095 17.4845 17.9095 17.4816C17.9066 17.4816 17.9036 17.4816 17.9036 17.4786C17.9066 17.4757 17.9124 17.4728 17.9124 17.4728C17.9446 17.4405 17.9769 17.4054 18.0091 17.3732C18.0355 17.3468 18.0618 17.3204 18.0911 17.2941C18.0911 17.2941 18.0941 17.2941 18.0941 17.2911C18.1321 17.253 18.1732 17.215 18.2142 17.1769C18.2259 17.1652 18.2376 17.1534 18.2523 17.1417C18.2698 17.1241 18.2903 17.1066 18.3079 17.0919C18.3109 17.089 18.3109 17.089 18.3138 17.089C18.3343 17.0714 18.3519 17.0538 18.3724 17.0362C18.3958 17.0157 18.4192 16.9952 18.4427 16.9777C18.9642 16.5353 19.5501 16.172 20.1859 15.9025C20.2855 15.8614 20.388 15.8234 20.4905 15.7882C20.5257 15.7765 20.5579 15.756 20.5931 15.756C20.6458 15.7267 20.7015 15.715 20.7542 15.6974C20.7542 15.6974 20.7542 15.6944 20.7571 15.6944C20.8099 15.6769 20.8655 15.6593 20.9212 15.6446C20.9593 15.6329 20.9974 15.6212 21.0355 15.6124C21.056 15.6066 21.0765 15.6007 21.0941 15.5948C21.1146 15.589 21.1351 15.5861 21.1526 15.5802C21.4368 15.5069 21.7239 15.4484 22.011 15.4132C22.0433 15.4103 22.0755 15.4044 22.1077 15.4015C22.1341 15.3986 22.1605 15.3956 22.1898 15.3927C22.2161 15.3898 22.2425 15.3868 22.2689 15.3839C22.2982 15.381 22.3245 15.378 22.3538 15.3751C22.3978 15.3722 22.4388 15.3605 22.4827 15.3575C22.5267 15.3546 22.5677 15.3458 22.6116 15.3458H22.7318L22.7347 15.3517C22.7376 15.3517 22.7435 15.3546 22.7464 15.3546C22.7816 15.3546 22.8167 15.3575 22.8519 15.3575C22.8753 15.3575 22.9017 15.3575 22.9251 15.3575C22.9544 15.3575 22.9808 15.3575 23.0071 15.3575C23.0335 15.3575 23.0599 15.3575 23.0892 15.3605C23.1155 15.3605 23.1419 15.3634 23.1712 15.3634C23.3294 15.3693 23.4905 15.381 23.6487 15.3986C23.7776 15.4132 23.9066 15.4308 24.0325 15.4513C24.0853 15.4601 24.1351 15.4689 24.1878 15.4806C24.264 15.4952 24.3401 15.5099 24.4134 15.5275C24.6478 15.5802 24.8792 15.6505 25.1048 15.7296C25.3978 15.8351 25.6819 15.9581 25.9573 16.0929C26.0569 16.1427 26.1566 16.1896 26.2562 16.2482C26.2562 16.2482 26.2562 16.2511 26.2591 16.2511C26.2708 16.2599 26.2825 16.2716 26.2942 16.2804C26.3089 16.2921 26.3235 16.3009 26.3382 16.3068C26.3411 16.3068 26.3411 16.3097 26.3441 16.3097H26.347C26.3499 16.3097 26.3558 16.3097 26.3587 16.3097C26.3616 16.3097 26.3646 16.3068 26.3646 16.3068C26.3851 16.3068 26.4056 16.3419 26.4261 16.3566C26.4319 16.3595 26.4378 16.3653 26.4437 16.3683C26.4525 16.3741 26.4612 16.38 26.4671 16.3859C26.4818 16.3946 26.4935 16.4034 26.5081 16.4122C26.5228 16.421 26.5374 16.4298 26.5521 16.4386C26.555 16.4386 26.555 16.4415 26.5579 16.4415C26.6019 16.4679 26.6517 16.4943 26.6956 16.5236C26.845 16.6261 26.9857 16.7374 27.1321 16.8517V6.96398C27.1292 6.47765 27.1351 5.98546 27.1175 5.49914ZM5.26202 16.963H8.16241C8.52569 16.963 8.79815 17.256 8.8128 17.6075C8.82745 17.9591 8.50226 18.2521 8.16241 18.2521H5.26202C4.89874 18.2521 4.62628 17.9591 4.61163 17.6075C4.59698 17.256 4.92218 16.963 5.26202 16.963ZM12.6653 21.5333H5.26202C4.89874 21.5333 4.62628 21.2403 4.61163 20.8888C4.59698 20.5372 4.92218 20.2443 5.26202 20.2443H12.6624C13.0257 20.2443 13.2982 20.5372 13.3128 20.8888C13.3304 21.2403 13.0052 21.5333 12.6653 21.5333Z" fill="#A9A9A9"/>
<path d="M28.377 21.706C28.3712 21.624 28.3624 21.542 28.3536 21.4599C28.3536 21.457 28.3536 21.4541 28.3536 21.4512V21.4482C28.3536 21.4453 28.3536 21.4424 28.3507 21.4394C28.3448 21.4072 28.3419 21.375 28.336 21.3428C28.2804 21.0117 28.1983 20.6836 28.087 20.3642C28.0548 20.2734 28.0226 20.1855 27.9874 20.0976C27.9815 20.0859 27.9728 20.0654 27.964 20.0449C27.9728 20.0888 27.9552 20.0976 27.9522 20.0127C27.9522 20.0127 27.9522 20.0127 27.9522 20.0156C27.9522 20.0244 27.9581 20.0332 27.964 20.0449C27.961 20.0361 27.961 20.0244 27.9552 20.0156L27.9522 20.0127H27.9493V20.0097C27.9493 20.0097 27.9522 20.0097 27.9522 20.0127C27.8907 19.8691 27.8175 19.7285 27.7442 19.5908C27.6065 19.3359 27.4513 19.0547 27.2608 18.8291C27.2608 18.8262 27.2579 18.8262 27.2579 18.8232C27.255 18.8203 27.252 18.8144 27.2491 18.8115C27.2345 18.7969 27.2198 18.7793 27.211 18.7676C27.1817 18.7324 27.1524 18.6943 27.1202 18.6592C27.0704 18.6006 27.0177 18.542 26.9649 18.4834C26.8595 18.3691 26.7511 18.2578 26.6368 18.1523C26.5196 18.0439 26.3995 17.9414 26.2765 17.8388C26.2647 17.8301 26.256 17.8242 26.2501 17.8154C26.2442 17.8096 26.2354 17.8037 26.2237 17.7949C26.1915 17.7715 26.1622 17.748 26.13 17.7246C26.0538 17.6689 25.9747 17.6162 25.8927 17.5635C25.7345 17.4609 25.5733 17.3672 25.4093 17.2793C25.3331 17.2383 25.2569 17.2002 25.1808 17.165C25.1485 17.1504 25.1192 17.1357 25.087 17.1211C25.0782 17.1181 25.0606 17.1094 25.0401 17.0976C25.0343 17.0947 25.0284 17.0918 25.0226 17.0888C24.7237 16.9453 24.381 16.8603 24.0616 16.7871C23.9591 16.7637 23.8565 16.7431 23.7511 16.7256C23.6983 16.7168 23.6456 16.708 23.5929 16.6992C23.5812 16.6963 23.5577 16.6933 23.5431 16.6875H23.5401C23.3878 16.664 23.2208 16.664 23.0685 16.6582C22.7579 16.6465 22.4474 16.6611 22.1397 16.6933C22.128 16.6933 22.1192 16.6963 22.1134 16.6963C22.0899 16.6992 22.0636 16.7051 22.0401 16.708C21.9698 16.7197 21.9024 16.7314 21.8321 16.7461C21.6944 16.7724 21.5597 16.8047 21.4249 16.8398C21.2784 16.8779 21.1319 16.9248 20.9884 16.9746C20.9239 16.998 20.8595 17.0215 20.795 17.0449C20.7687 17.0537 20.7452 17.0654 20.7218 17.0742C20.6837 17.1152 20.5694 17.1416 20.5167 17.165C20.461 17.1914 20.4054 17.2178 20.3526 17.2471C20.2325 17.3086 20.1124 17.376 19.9952 17.4463C19.8663 17.5224 19.7433 17.6045 19.6202 17.6894C19.5763 17.7217 19.5323 17.751 19.4884 17.7832C19.4737 17.8066 19.4181 17.8388 19.3946 17.8564C19.1808 18.0322 18.9786 18.2197 18.7882 18.4219C18.6915 18.5244 18.5978 18.6328 18.5069 18.7412C18.4894 18.7617 18.4601 18.8174 18.4337 18.8349C18.4015 18.8789 18.3692 18.9199 18.3399 18.9638C18.1759 19.1982 18.0294 19.4414 17.8976 19.6933C17.8653 19.7549 17.836 19.8164 17.8067 19.8779C17.7833 19.9248 17.7628 20.0303 17.7247 20.0625C17.7159 20.0859 17.7042 20.1123 17.6954 20.1357C17.672 20.2002 17.6456 20.2646 17.6251 20.3291C17.5284 20.6045 17.4522 20.8857 17.3966 21.1728C17.3819 21.249 17.3673 21.3252 17.3556 21.4013C17.3526 21.416 17.3526 21.4336 17.3497 21.4512C17.3614 21.4072 17.379 21.3896 17.3409 21.498C17.3263 21.6269 17.3146 21.7558 17.3087 21.8877C17.2911 22.2363 17.3028 22.5849 17.3438 22.9306V22.9336C17.3468 22.9512 17.3585 23.0215 17.3614 23.042C17.3702 23.0976 17.3819 23.1533 17.3907 23.209C17.4083 23.2998 17.4288 23.3906 17.4493 23.4814C17.4903 23.6513 17.5401 23.8213 17.5958 23.9853C17.628 24.082 17.6632 24.1758 17.6983 24.2695C17.7013 24.2783 17.7364 24.3633 17.7394 24.3721C17.7481 24.3926 17.7569 24.4131 17.7687 24.4365C17.8419 24.5976 17.9239 24.7558 18.0118 24.9111C18.0909 25.0517 18.1759 25.1894 18.2667 25.3242C18.3077 25.3857 18.3487 25.4443 18.3927 25.5058C18.4103 25.5293 18.4278 25.5527 18.4454 25.5762C18.4454 25.5791 18.4483 25.5791 18.4483 25.5791L18.4513 25.582C18.6388 25.8105 18.8321 26.0273 19.046 26.2324C19.1632 26.3437 19.2862 26.4492 19.4122 26.5517C19.4151 26.5547 19.421 26.5605 19.4298 26.5664L19.4327 26.5693C19.4327 26.5693 19.4356 26.5693 19.4356 26.5722L19.4386 26.5752L19.4415 26.5781C19.4591 26.5928 19.4854 26.6103 19.4884 26.6133C19.547 26.6572 19.6085 26.7012 19.6671 26.7422C19.9161 26.9121 20.1798 27.0674 20.4522 27.1992C20.5255 27.2344 20.6017 27.2695 20.6749 27.3017C20.6778 27.3047 20.6808 27.3047 20.6837 27.3047C20.7101 27.3164 20.7394 27.3281 20.7657 27.3369C20.9063 27.3926 21.047 27.4394 21.1905 27.4834C21.3487 27.5332 21.5099 27.5742 21.6739 27.6094C21.8087 27.6387 21.9903 27.7031 22.1251 27.6914C22.0987 27.6885 22.0724 27.6826 22.0431 27.6797C22.0724 27.6826 22.1046 27.6885 22.1339 27.6914C22.172 27.6943 22.2101 27.7002 22.2481 27.7031C22.3185 27.709 22.3888 27.7148 22.4591 27.7178C22.6144 27.7265 22.7696 27.7295 22.9249 27.7295C23.0831 27.7265 23.2413 27.7207 23.3995 27.706C23.4288 27.7031 23.4874 27.6885 23.5372 27.6826C23.5226 27.6885 23.5226 27.6972 23.5665 27.6885C23.5812 27.6855 23.5958 27.6855 23.6104 27.6826C23.6368 27.6797 23.6661 27.6738 23.6925 27.6709C23.9679 27.624 24.2403 27.5596 24.5069 27.4775C24.6505 27.4336 24.794 27.3838 24.9347 27.3281C24.961 27.3193 24.9845 27.3076 25.0108 27.2959C25.0724 27.2666 25.1339 27.2402 25.1925 27.2109C25.4444 27.0908 25.6876 26.9531 25.919 26.7978C25.9806 26.7568 26.0421 26.7158 26.1036 26.6719C26.1505 26.6396 26.2091 26.5752 26.2618 26.5547C26.2823 26.5371 26.3028 26.5195 26.3233 26.5019C26.3761 26.458 26.4259 26.414 26.4786 26.3701C26.6895 26.1826 26.8917 25.9804 27.0763 25.7666C27.1202 25.7138 27.1642 25.6611 27.2052 25.6113C27.2052 25.6142 27.2052 25.6142 27.2022 25.6172C27.2022 25.6142 27.2052 25.6142 27.2052 25.6113C27.2081 25.6055 27.214 25.6025 27.2169 25.5967C27.2257 25.5849 27.2315 25.5762 27.2374 25.5674C27.2462 25.5556 27.2579 25.5469 27.2638 25.5351C27.3399 25.4326 27.4132 25.3271 27.4835 25.2187C27.6388 24.9785 27.7765 24.7295 27.8966 24.4687C27.9142 24.4306 27.9317 24.3926 27.9464 24.3574C27.9464 24.3545 27.9493 24.3545 27.9493 24.3515C27.9493 24.3515 27.9493 24.3486 27.9522 24.3486C27.9757 24.29 27.9991 24.2314 28.0226 24.1699C28.0694 24.0469 28.1104 23.9238 28.1456 23.7978C28.2276 23.5254 28.2892 23.2441 28.3331 22.9629C28.3243 22.9394 28.3448 22.8633 28.3478 22.8369C28.3565 22.7666 28.3624 22.6933 28.3653 22.623C28.3741 22.4795 28.38 22.3359 28.38 22.1894C28.3946 22.0371 28.3888 21.873 28.377 21.706ZM23.9503 22.3799C24.3868 22.8164 24.8233 23.2529 25.2599 23.6894C25.5177 23.9472 25.4972 24.3486 25.2599 24.6094C25.0226 24.8672 24.5802 24.8496 24.3399 24.6094C24.1788 24.4482 24.0147 24.2842 23.8536 24.123C23.5196 23.789 23.1886 23.458 22.8546 23.124L22.6817 23.2969C22.2452 23.7334 21.8087 24.1699 21.3722 24.6064C21.1144 24.8642 20.713 24.8437 20.4522 24.6064C20.1944 24.3691 20.212 23.9267 20.4522 23.6865C20.6134 23.5254 20.7774 23.3642 20.9386 23.2002C21.2726 22.8662 21.6036 22.5351 21.9376 22.2012C21.879 22.1426 21.8204 22.084 21.7647 22.0283C21.3282 21.5918 20.8917 21.1553 20.4552 20.7187C20.1974 20.4609 20.2179 20.0596 20.4552 19.7988C20.6925 19.541 21.1349 19.5586 21.3751 19.7988C21.5362 19.9599 21.7003 20.124 21.8614 20.2851L22.8604 21.2842C22.919 21.2256 22.9776 21.167 23.0333 21.1113L24.3429 19.8017C24.6007 19.5439 25.002 19.5644 25.2628 19.8017C25.5206 20.039 25.503 20.4814 25.2628 20.7217C25.1017 20.8828 24.9376 21.0469 24.7765 21.208L23.7774 22.207L23.9503 22.3799ZM19.462 17.8183C19.4415 17.833 19.4327 17.8418 19.4298 17.8418C19.4356 17.8388 19.4737 17.8096 19.4884 17.7978C19.4796 17.8037 19.4708 17.8096 19.462 17.8183ZM18.4688 18.8115C18.463 18.8203 18.4542 18.8291 18.4483 18.8379C18.463 18.8203 18.4894 18.7822 18.4923 18.7763C18.4923 18.7822 18.4835 18.791 18.4688 18.8115ZM17.3556 21.4951C17.3556 21.501 17.3556 21.5039 17.3526 21.5097C17.3556 21.4951 17.3585 21.4805 17.3585 21.4658C17.3585 21.4746 17.3556 21.4834 17.3556 21.4951ZM17.3497 21.5185C17.3497 21.5156 17.3526 21.5127 17.3526 21.5097C17.3526 21.5097 17.3526 21.5097 17.3526 21.5068C17.3526 21.5127 17.3526 21.5156 17.3497 21.5185Z" fill="#A9A9A9"/>
</svg>
