<svg width="28" height="28" viewBox="0 0 28 28" fill="none" xmlns="http://www.w3.org/2000/svg">
<g clip-path="url(#clip0_324_16782)">
<path d="M4.03639 0C1.81922 0 -0.00390625 1.83404 -0.00390625 4.05124V23.9493C-0.00390625 26.1665 1.81922 28.0006 4.03639 28.0006H23.9454C26.1626 28.0006 27.9857 26.1665 27.9857 23.9493V4.05124C27.9857 1.83404 26.1626 0 23.9454 0H4.03639Z" fill="#B3DAFF"/>
<path d="M11.1942 1.01682e-05C11.0094 -0.000694026 10.8264 0.035185 10.6556 0.105548C10.4848 0.175911 10.3297 0.279378 10.199 0.409993C10.0684 0.540609 9.96496 0.69578 9.89459 0.866571C9.82423 1.03736 9.78837 1.2204 9.78907 1.40512V12.6048C9.79132 12.8803 9.87482 13.149 10.0291 13.3772C10.1834 13.6055 10.4016 13.7831 10.6564 13.8879C10.9112 13.9927 11.1913 14.0199 11.4615 13.9663C11.7317 13.9126 11.9801 13.7804 12.1755 13.5861L13.9961 11.7792L15.8031 13.5861C15.9985 13.7804 16.2468 13.9126 16.5171 13.9663C16.7873 14.0199 17.0674 13.9927 17.3222 13.8879C17.577 13.7831 17.7952 13.6055 17.9495 13.3772C18.1038 13.149 18.1873 12.8803 18.1895 12.6048V1.40512C18.1909 1.03392 18.0448 0.677366 17.7834 0.413868C17.522 0.15037 17.1665 0.00149452 16.7954 1.01682e-05H11.1942Z" fill="white"/>
<path d="M11.1942 1.01682e-05C11.0094 -0.000694026 10.8264 0.035185 10.6556 0.105548C10.4848 0.175911 10.3297 0.279378 10.199 0.409993C10.0684 0.540609 9.96496 0.69578 9.89459 0.866571C9.82423 1.03736 9.78837 1.2204 9.78907 1.40512V12.6048C9.79132 12.8803 9.87482 13.149 10.0291 13.3772C10.1834 13.6055 10.4016 13.7831 10.6564 13.8879C10.9112 13.9927 11.1913 14.0199 11.4615 13.9663C11.7317 13.9126 11.9801 13.7804 12.1755 13.5861L13.9961 11.7792L15.8031 13.5861C15.9985 13.7804 16.2468 13.9126 16.5171 13.9663C16.7873 14.0199 17.0674 13.9927 17.3222 13.8879C17.577 13.7831 17.7952 13.6055 17.9495 13.3772C18.1038 13.149 18.1873 12.8803 18.1895 12.6048V1.40512C18.1909 1.03392 18.0448 0.677366 17.7834 0.413868C17.522 0.15037 17.1665 0.00149452 16.7954 1.01682e-05H11.1942Z" fill="white"/>
<path d="M27.9853 18.0586C26.1184 18.9042 24.2095 19.6851 22.2721 20.3958C14.908 23.0925 7.2957 24.716 0.187439 25.1058C0.692181 26.765 2.22343 27.9979 4.03634 27.9979H23.9451C26.1622 27.9979 27.9853 26.1639 27.9853 23.9468V18.0586Z" fill="#F3F3F3"/>
</g>
<defs>
<clipPath id="clip0_324_16782">
<rect width="27.9888" height="28" fill="white"/>
</clipPath>
</defs>
</svg>
