<svg width="28" height="28" viewBox="0 0 28 28" fill="none" xmlns="http://www.w3.org/2000/svg">
<path d="M3.11111 24.8889H26.4444C27.3036 24.8889 28 25.5853 28 26.4444C28 27.3036 27.3036 28 26.4444 28H1.55556C0.696446 28 0 27.3036 0 26.4444V1.55556C0 0.696446 0.696446 0 1.55556 0C2.41467 0 3.11111 0.696446 3.11111 1.55556V24.8889Z" fill="#FF6C6C"/>
<path opacity="0.5" d="M8.91305 5.93538C8.32547 5.30862 7.34106 5.27687 6.71431 5.86445C6.08756 6.45203 6.0558 7.43644 6.64338 8.06319L12.4767 14.2854C13.045 14.8916 13.9893 14.9441 14.6213 14.4048L19.2253 10.476L25.224 18.0743C25.7563 18.7486 26.7345 18.8637 27.4088 18.3313C28.0831 17.799 28.1982 16.8208 27.6658 16.1465L20.6658 7.27984C20.1191 6.58728 19.1063 6.48768 18.4351 7.06044L13.7311 11.0746L8.91305 5.93538Z" fill="#FF6C6C"/>
</svg>
