<svg width="30" height="30" viewBox="0 0 30 30" fill="none" xmlns="http://www.w3.org/2000/svg">
<g clip-path="url(#clip0_324_15665)">
<path d="M18.0055 0V12.2833C18.0167 12.3729 17.9992 12.4638 17.9556 12.5429C17.912 12.6219 17.8445 12.6852 17.7628 12.7236C17.6811 12.7621 17.5893 12.7736 17.5006 12.7568C17.4119 12.7399 17.3308 12.6954 17.2689 12.6296L14.121 9.26758C14.0826 9.22134 14.0344 9.18414 13.98 9.1586C13.9256 9.13307 13.8663 9.11983 13.8062 9.11983C13.7461 9.11983 13.6867 9.13307 13.6323 9.1586C13.5779 9.18414 13.5298 9.22134 13.4914 9.26758L10.3434 12.6296C10.2815 12.6954 10.2004 12.7399 10.1117 12.7568C10.023 12.7736 9.93123 12.7621 9.8495 12.7236C9.76778 12.6852 9.7003 12.6219 9.6567 12.5429C9.61311 12.4638 9.59564 12.3729 9.60679 12.2833V0H18.0055Z" fill="#FEC53D"/>
<path d="M24.3207 0H19.9135V16.0986C19.9168 16.2248 19.8821 16.349 19.814 16.4552C19.7458 16.5613 19.6474 16.6446 19.5313 16.6941C19.4153 16.7437 19.2871 16.7572 19.1632 16.733C19.0394 16.7087 18.9257 16.6479 18.8369 16.5582L14.2598 12.1511C14.1421 12.0357 13.9839 11.9711 13.8191 11.9711C13.6543 11.9711 13.4961 12.0357 13.3784 12.1511L8.80124 16.5582C8.71244 16.6479 8.59875 16.7087 8.47493 16.733C8.35111 16.7572 8.22287 16.7437 8.10683 16.6941C7.99079 16.6446 7.89231 16.5613 7.82416 16.4552C7.75602 16.349 7.72134 16.2248 7.72464 16.0986V0H5.67218C4.16938 0 2.72813 0.596985 1.66549 1.65963C0.602845 2.72227 0.00585938 4.16352 0.00585938 5.66632V24.3148C0.00585938 25.8176 0.602845 27.2588 1.66549 28.3215C2.72813 29.3841 4.16938 29.9811 5.67218 29.9811H24.3207C25.8235 29.9811 27.2647 29.3841 28.3273 28.3215C29.39 27.2588 29.987 25.8176 29.987 24.3148V5.67261C29.9878 4.92797 29.8418 4.19047 29.5575 3.50227C29.2731 2.81408 28.8558 2.18868 28.3296 1.66185C27.8033 1.13502 27.1784 0.717077 26.4905 0.431924C25.8026 0.146772 25.0653 -4.59654e-07 24.3207 0ZM20.4046 26.6632H5.92401C5.67355 26.6632 5.43334 26.5637 5.25623 26.3866C5.07912 26.2095 4.97963 25.9692 4.97963 25.7188C4.97963 25.4683 5.07912 25.2281 5.25623 25.051C5.43334 24.8739 5.67355 24.7744 5.92401 24.7744H20.4046C20.6551 24.7744 20.8953 24.8739 21.0724 25.051C21.2495 25.2281 21.349 25.4683 21.349 25.7188C21.349 25.9692 21.2495 26.2095 21.0724 26.3866C20.8953 26.5637 20.6551 26.6632 20.4046 26.6632ZM25.668 22.256H5.91142C5.66095 22.256 5.42075 22.1565 5.24364 21.9794C5.06653 21.8023 4.96703 21.5621 4.96703 21.3116C4.96703 21.0612 5.06653 20.821 5.24364 20.6439C5.42075 20.4668 5.66095 20.3673 5.91142 20.3673H25.668C25.9184 20.3673 26.1587 20.4668 26.3358 20.6439C26.5129 20.821 26.6124 21.0612 26.6124 21.3116C26.6124 21.5621 26.5129 21.8023 26.3358 21.9794C26.1587 22.1565 25.9184 22.256 25.668 22.256Z" fill="#FEC53D"/>
</g>
<defs>
<clipPath id="clip0_324_15665">
<rect width="30" height="30" fill="white"/>
</clipPath>
</defs>
</svg>
