<svg width="30" height="30" viewBox="0 0 30 30" fill="none" xmlns="http://www.w3.org/2000/svg">
<path d="M27.1285 5.50195C27.1285 5.49609 27.1285 5.49023 27.1285 5.48438V5.48145C27.0992 4.45898 26.6188 3.51562 25.8043 2.90039C25.2477 2.47852 24.5445 2.27344 23.8502 2.27344C23.4078 2.27344 22.9567 2.28516 22.5143 2.28516H18.0465V9.16699C18.0465 9.17285 18.0436 9.17871 18.0436 9.18457C18.0436 9.21094 18.0406 9.2373 18.0319 9.26074C18.0319 9.26367 18.0377 9.26367 18.0377 9.2666H18.0465C18.0465 9.26953 18.0465 9.27246 18.0172 9.27539C18.0172 9.27832 18.0172 9.28125 18.0172 9.28418H18.0231C18.0201 9.29004 18.0172 9.2959 18.0172 9.29883C18.0172 9.31348 18.0084 9.32519 18.0026 9.33984C17.9967 9.35156 17.9908 9.36621 17.985 9.37793C17.982 9.38379 17.9791 9.38672 17.9762 9.39258C17.9762 9.39258 17.9762 9.39551 17.9733 9.39551C17.9733 9.39844 17.9703 9.39844 17.9703 9.40137C17.9703 9.4043 17.9674 9.4043 17.9674 9.40723C17.9645 9.41016 17.9615 9.41602 17.9586 9.41895C17.9586 9.41895 17.9586 9.42188 17.9557 9.42188C17.9528 9.42773 17.9469 9.43359 17.944 9.43945C17.9381 9.44531 17.9322 9.45117 17.9264 9.45996C17.9264 9.45996 17.9264 9.45996 17.9235 9.46289C17.9205 9.46582 17.9205 9.46582 17.9176 9.46875H17.9235H17.9293C17.9293 9.47461 17.9117 9.48047 17.9059 9.4834H17.9029C17.9029 9.4834 17.9 9.48633 17.8971 9.48633C17.8942 9.48926 17.8883 9.49219 17.8854 9.49512C17.8824 9.49805 17.8766 9.50098 17.8707 9.50391C17.8619 9.50977 17.8531 9.51562 17.8444 9.52148C17.8414 9.52441 17.8385 9.52441 17.8385 9.52441C17.8326 9.52734 17.8268 9.5332 17.8209 9.53613C17.818 9.53906 17.8151 9.53906 17.8121 9.54199C17.8033 9.54492 17.7975 9.55078 17.7887 9.55371C17.7887 9.55371 17.7858 9.55371 17.7858 9.55664C17.7828 9.55664 17.7799 9.55957 17.7799 9.55957C17.777 9.5625 17.7711 9.5625 17.7682 9.5625C17.7653 9.56543 17.7594 9.56543 17.7565 9.56543C17.7535 9.56543 17.7535 9.56543 17.7535 9.56836C17.7506 9.56836 17.7506 9.56836 17.7506 9.56836C17.7447 9.57129 17.7389 9.57129 17.733 9.57422C17.7213 9.57715 17.7096 9.57715 17.6979 9.58008C17.6891 9.58301 17.6803 9.58008 17.6686 9.58008C17.6656 9.58008 17.6656 9.57715 17.6627 9.57715C17.6539 9.58008 17.6481 9.58301 17.6393 9.58594C17.6217 9.58594 17.6041 9.58594 17.5865 9.58301C17.5807 9.58301 17.5748 9.58008 17.569 9.58008H17.566C17.5631 9.58008 17.5631 9.57715 17.5602 9.57715C17.5602 9.57715 17.5602 9.58008 17.5572 9.58008C17.5572 9.57715 17.5543 9.58008 17.5543 9.58008C17.5455 9.58008 17.5367 9.58008 17.5279 9.58008C17.5221 9.58008 17.5192 9.58008 17.5133 9.58008C17.5104 9.58008 17.5074 9.58008 17.5045 9.57715C17.5016 9.57715 17.4986 9.57422 17.4928 9.57422C17.4869 9.57422 17.4811 9.57422 17.4781 9.57129C17.4752 9.57129 17.4694 9.57422 17.4664 9.57422C17.4635 9.57422 17.4606 9.57715 17.4576 9.57715C17.4547 9.57715 17.4547 9.57422 17.4518 9.57422C17.4459 9.57129 17.4401 9.56543 17.4342 9.55957V9.55664C17.4313 9.55371 17.4313 9.55078 17.4283 9.54785C17.4283 9.54785 17.4254 9.54785 17.4254 9.54492V9.54785C17.4225 9.54785 17.4225 9.54492 17.4195 9.54492C17.4137 9.54492 17.4108 9.54199 17.4049 9.53906C17.402 9.53906 17.402 9.53613 17.399 9.53613C17.3844 9.52734 17.3697 9.51855 17.3551 9.5127C17.3404 9.50391 17.3258 9.49512 17.3112 9.48926C17.2819 9.47168 17.2496 9.45703 17.2203 9.43945C17.191 9.42188 17.1617 9.40723 17.1295 9.38965C17.1266 9.38672 17.1237 9.38672 17.1207 9.38379C17.1061 9.375 17.0914 9.36621 17.0738 9.35742C17.0621 9.35156 17.0504 9.3457 17.0387 9.33691C16.7633 9.18457 16.485 9.0293 16.2096 8.87695C16.0983 8.81543 15.9899 8.75391 15.8785 8.69238C15.7115 8.60156 15.5475 8.50781 15.3805 8.41699C15.2633 8.35254 15.1432 8.28516 15.026 8.2207C14.9088 8.15625 14.7887 8.08887 14.6715 8.02441C14.6217 8.05078 14.5748 8.07715 14.525 8.10645C13.8776 8.4668 13.2272 8.82422 12.5797 9.18457C12.3629 9.30469 12.149 9.4248 11.9322 9.54492C11.7272 9.65918 11.4811 9.58887 11.3551 9.41895C11.3463 9.40723 11.3434 9.39551 11.3375 9.38379C11.3024 9.32227 11.2848 9.25195 11.2848 9.17285V2.28516H5.68615C5.18517 2.28516 4.67248 2.24414 4.18029 2.34375C3.234 2.53418 2.39025 3.1875 1.97131 4.05469C1.73986 4.53223 1.64025 5.0332 1.64025 5.56348V21.1729C1.64025 21.627 1.60217 22.0986 1.6549 22.5498C1.77209 23.5459 2.3258 24.4541 3.1842 24.9785C3.70861 25.2979 4.30627 25.459 4.91857 25.459H16.8336C16.8248 25.4297 16.8131 25.4092 16.8043 25.3916C16.7369 25.2598 16.6754 25.1397 16.6168 25.0107C16.5904 24.9551 16.567 24.8936 16.5436 24.835C16.5436 24.832 16.5406 24.8262 16.5406 24.8232C16.5406 24.8203 16.5377 24.8174 16.5377 24.8145C16.5289 24.7969 16.5231 24.7793 16.5172 24.7646C16.4967 24.7148 16.4762 24.668 16.4557 24.6182C16.4498 24.6035 16.444 24.5801 16.4381 24.5801H16.441C16.441 24.5801 16.441 24.5742 16.4381 24.5713C16.4176 24.5186 16.4 24.4658 16.3824 24.416C16.3795 24.4072 16.3766 24.3955 16.3737 24.3867C16.3678 24.3721 16.3649 24.3574 16.359 24.3428C16.3502 24.3164 16.3414 24.293 16.3326 24.2666C16.3238 24.2402 16.3151 24.2168 16.3092 24.1904C16.3033 24.1758 16.3004 24.1582 16.2945 24.1436C16.2828 24.1084 16.274 24.0703 16.2623 24.0352C16.2594 24.0205 16.2535 24.0029 16.2506 23.9883C16.2477 23.9795 16.2447 23.9736 16.2447 23.9648C16.2418 23.9531 16.2389 23.9385 16.233 23.9268C16.233 23.9238 16.2301 23.918 16.2301 23.915C16.2301 23.9121 16.2272 23.9063 16.2272 23.9033C16.2272 23.9004 16.2242 23.8945 16.2242 23.8916C16.2213 23.874 16.2154 23.8594 16.2125 23.8418C16.2096 23.8242 16.2037 23.8096 16.2008 23.792C16.1949 23.7627 16.1861 23.7363 16.1803 23.707C16.1803 23.7041 16.1803 23.7012 16.1774 23.6982C16.1715 23.6777 16.1686 23.6572 16.1627 23.6338C16.1539 23.5986 16.1481 23.5635 16.1393 23.5283C16.1334 23.4961 16.1276 23.4668 16.1217 23.4346C16.1158 23.4082 16.1129 23.3848 16.107 23.3584C16.1041 23.3408 16.1012 23.3262 16.0983 23.3086C16.0953 23.291 16.0924 23.2764 16.0895 23.2588C16.0895 23.2529 16.0865 23.25 16.0865 23.2441C16.0836 23.2324 16.0836 23.2207 16.0807 23.209C16.0807 23.2061 16.0807 23.2061 16.0807 23.2031C16.0748 23.1797 16.0719 23.1533 16.069 23.1299C16.069 23.127 16.0807 23.127 16.0807 23.124C16.066 23.0186 16.0543 22.9131 16.0543 22.8076V22.8047C16.0543 22.7988 16.0572 22.793 16.0543 22.7871C16.0543 22.7695 16.0543 22.752 16.0543 22.7344V22.582C16.0543 22.5762 16.0426 22.5674 16.0397 22.5615C16.0397 22.5557 16.0338 22.5527 16.0309 22.5469C16.0279 22.5352 16.0221 22.5205 16.0221 22.5088C16.0221 22.4854 16.0192 22.4648 16.0192 22.4414C16.0133 22.2656 16.0192 22.0869 16.025 21.9111C16.025 21.9082 16.0397 21.9023 16.0397 21.8994C16.0397 21.8994 16.0514 21.8994 16.0514 21.8965C16.0514 21.8789 16.0397 21.8613 16.0426 21.8467C16.0426 21.835 16.0485 21.8203 16.0485 21.8086C16.0485 21.8027 16.0514 21.7998 16.0514 21.7939V21.75C16.0514 21.7236 16.0514 21.6973 16.0543 21.6738L16.0514 21.6709V21.6826H16.0279L16.025 21.6768L16.0367 21.6738C16.0397 21.6387 16.0514 21.6035 16.0514 21.5684V21.5508C16.0514 21.5449 16.0397 21.542 16.0397 21.5361C16.0397 21.5332 16.0338 21.5303 16.0367 21.5273L16.0338 21.5244V21.5215C16.0338 21.5186 16.0338 21.5156 16.0338 21.5127C16.0397 21.498 16.0455 21.4805 16.0514 21.4658V21.4629C16.0543 21.457 16.0543 21.4512 16.0543 21.4482C16.0543 21.4453 16.0807 21.4453 16.0807 21.4424C16.0807 21.4395 16.107 21.4395 16.107 21.4365V21.4336C16.107 21.4277 16.0807 21.4248 16.0807 21.4189C16.0807 21.3838 16.0719 21.3486 16.0778 21.3164H16.0719H16.066C16.069 21.3018 16.069 21.2842 16.069 21.2695C16.069 21.2666 16.0719 21.2607 16.0748 21.2578V21.2549H16.1041C16.1041 21.252 16.1041 21.252 16.1334 21.249V21.2461C16.1334 21.2432 16.107 21.2402 16.11 21.2373H16.1217C16.1246 21.2344 16.1363 21.2314 16.1363 21.2285V21.2227V21.208V21.2051C16.1363 21.2021 16.1363 21.2021 16.1363 21.1992C16.1363 21.1992 16.11 21.1992 16.11 21.1963H16.0983C16.0983 21.1963 16.0924 21.1963 16.0924 21.1934C16.1012 21.1436 16.1041 21.0938 16.1129 21.0439C16.1129 21.0352 16.1129 21.0234 16.1158 21.0146C16.1188 21 16.1188 20.9854 16.1217 20.9707C16.1246 20.9561 16.1276 20.9414 16.1305 20.9268C16.1363 20.9033 16.1393 20.877 16.1451 20.8535C16.1686 20.7305 16.1979 20.6104 16.2272 20.4902C16.2301 20.4756 16.236 20.4609 16.2389 20.4434C16.2418 20.4346 16.2447 20.4258 16.2477 20.4141C16.2594 20.3672 16.274 20.3203 16.2887 20.2705C16.2945 20.2471 16.3004 20.2266 16.3092 20.2031C16.3238 20.1533 16.3385 20.1064 16.3561 20.0566V20.0537C16.3649 20.0303 16.3707 20.0068 16.3795 19.9834C16.3883 19.96 16.3942 19.9365 16.4029 19.9131C16.4117 19.8897 16.4205 19.8662 16.4293 19.8428C16.4381 19.8193 16.4469 19.7959 16.4557 19.7725C16.4703 19.7373 16.482 19.6992 16.4967 19.6641C16.5113 19.623 16.5289 19.582 16.5465 19.541C16.5611 19.5059 16.5758 19.4736 16.5904 19.4385C16.608 19.3975 16.6285 19.3535 16.649 19.3125C16.6608 19.2891 16.6725 19.2627 16.6842 19.2393C16.6871 19.2305 16.693 19.2217 16.6959 19.2129C16.7106 19.1807 16.7281 19.1484 16.7428 19.1162C16.7516 19.1016 16.7574 19.084 16.7662 19.0693C16.775 19.0518 16.7838 19.0342 16.7926 19.0195C16.7985 19.0078 16.8043 18.999 16.8102 18.9873C16.8102 18.9844 16.8131 18.9844 16.8131 18.9814C16.8131 18.9814 16.8131 18.9785 16.816 18.9785C16.8248 18.9609 16.8336 18.9434 16.8424 18.9287C16.8512 18.9141 16.857 18.9023 16.8658 18.8877C16.8805 18.8584 16.8981 18.8291 16.9156 18.7998C16.9332 18.7676 16.9508 18.7383 16.9713 18.7061C16.986 18.6826 17.0006 18.6562 17.0153 18.6328C17.0153 18.6299 17.0182 18.6299 17.0182 18.627C17.0211 18.6211 17.027 18.6152 17.0299 18.6094C17.0299 18.6064 17.0328 18.6064 17.0328 18.6064C17.0358 18.6035 17.0358 18.6006 17.0387 18.5977C17.0445 18.5918 17.0475 18.5859 17.0504 18.5801L17.0533 18.5771V18.5742C17.0533 18.5742 17.0533 18.5742 17.0533 18.5713V18.5684V18.5596C17.0533 18.5449 17.0738 18.5303 17.0856 18.5156L17.0885 18.5127C17.0944 18.5039 17.1002 18.4951 17.1061 18.4863C17.109 18.4834 17.109 18.4834 17.109 18.4805L17.1119 18.4775C17.1149 18.4746 17.1149 18.4717 17.1178 18.4688C17.1207 18.4658 17.1236 18.4629 17.1236 18.46C17.1236 18.457 17.1266 18.457 17.1266 18.457C17.1295 18.4541 17.1324 18.4482 17.1324 18.4453C17.1324 18.4424 17.1324 18.4424 17.1354 18.4424C17.1383 18.4395 17.1383 18.4365 17.1412 18.4336L17.1442 18.4365V18.4395V18.4336C17.1442 18.4307 17.1471 18.4277 17.15 18.4248C17.1559 18.416 17.1588 18.4072 17.1647 18.4014L17.1676 18.3984C17.1676 18.3984 17.1676 18.3955 17.1705 18.3955H17.1969C17.1998 18.3926 17.2291 18.3896 17.2291 18.3838C17.2291 18.375 17.2145 18.3633 17.2233 18.3516C17.2233 18.3516 17.2115 18.3486 17.2145 18.3486C17.2145 18.3486 17.2086 18.3457 17.2086 18.3428L17.2057 18.334C17.2057 18.3311 17.2028 18.3223 17.2028 18.3223H17.2584V18.3428C17.2584 18.3398 17.235 18.3398 17.235 18.3398L17.2233 18.3369H17.2174C17.2174 18.3369 17.2145 18.3369 17.2145 18.334C17.2174 18.3281 17.2203 18.3252 17.2233 18.3193C17.2233 18.3193 17.2233 18.3193 17.2233 18.3164C17.2233 18.3164 17.2233 18.3135 17.2262 18.3135C17.2291 18.3105 17.232 18.3076 17.235 18.3047C17.2526 18.2812 17.2701 18.2578 17.2877 18.2344C17.3229 18.1846 17.361 18.1348 17.3961 18.0879C17.4049 18.0791 17.4108 18.0674 17.4195 18.0586C17.4459 18.0234 17.4723 17.9912 17.4986 17.959C17.5074 17.9502 17.5133 17.9414 17.5192 17.9326C17.6012 17.833 17.6832 17.7363 17.7682 17.6396C17.7858 17.6221 17.8004 17.6045 17.818 17.5869C17.8297 17.5752 17.8414 17.5635 17.8531 17.5488C17.8649 17.5342 17.8766 17.5254 17.8883 17.5137C17.9117 17.4873 17.9381 17.4609 17.9615 17.4375C17.9674 17.4287 17.9762 17.4229 17.982 17.4141C17.985 17.4111 17.9879 17.4053 17.9938 17.4023L18.0055 17.3906C18.0084 17.3877 18.0084 17.3877 18.0113 17.3848C18.0113 17.3848 18.0113 17.3848 18.0113 17.3818L18.0143 17.3789L18.0172 17.373C18.0172 17.3701 18.026 17.3613 18.0319 17.3584H18.0582C18.0699 17.3291 18.0817 17.3203 18.0934 17.3086V17.2998C18.1051 17.2998 18.1139 17.2822 18.1256 17.2734C18.1315 17.2676 18.1373 17.2646 18.1432 17.2588C18.1461 17.2559 18.149 17.2529 18.1549 17.25C18.1608 17.2441 18.1403 17.2383 18.1695 17.2324V17.2412H18.1725H18.1813C18.1842 17.2412 18.1871 17.2266 18.1901 17.2236V17.2207L18.193 17.2148L18.1988 17.209C18.1988 17.209 18.1988 17.2061 18.2018 17.2061C18.2018 17.2061 18.2018 17.2061 18.2018 17.2031C18.2018 17.2002 18.2018 17.2002 18.2047 17.1973H18.2018V17.1943C18.2018 17.1943 18.2106 17.1943 18.2106 17.1914C18.2223 17.1797 18.2369 17.1709 18.2487 17.1592C18.2692 17.1416 18.2897 17.1211 18.3102 17.1035C18.319 17.0947 18.3307 17.0859 18.3424 17.0771C18.3483 17.0742 18.3541 17.0684 18.357 17.0625C18.3629 17.0596 18.3658 17.0537 18.3717 17.0479C18.3805 17.0391 18.3893 17.0303 18.401 17.0244L18.4039 17.0215C18.4303 16.998 18.4596 16.9746 18.4889 16.9541C18.4918 16.9512 18.4947 16.9482 18.4977 16.9453C18.5123 16.9336 18.527 16.9219 18.5416 16.9102V16.916C18.5504 16.916 18.5563 16.9014 18.5651 16.8955C18.568 16.8926 18.5709 16.8896 18.5709 16.8896L18.5738 16.8867L18.5768 16.8838C18.5826 16.8779 18.5914 16.8721 18.5973 16.8662C18.5973 16.8662 18.6002 16.8662 18.6002 16.8633C18.6061 16.8604 18.609 16.8545 18.6149 16.8516C18.6178 16.8486 18.6412 16.8486 18.6412 16.8457C18.6412 16.8457 18.6647 16.8457 18.6647 16.8428C18.6647 16.8428 18.6442 16.8428 18.6471 16.8398L18.6383 16.8369L18.6529 16.834H18.6647C18.6647 16.834 18.6471 16.8311 18.65 16.8311C18.6852 16.8018 18.7115 16.7754 18.7467 16.749C18.7496 16.7461 18.7467 16.7461 18.7496 16.7432C18.7526 16.7402 18.7496 16.7402 18.7526 16.7402V16.7373V16.7549V16.7695L18.7555 16.752V16.7432V16.7373C18.7584 16.7344 18.7584 16.7314 18.7613 16.7314C18.7643 16.7285 18.7672 16.7256 18.7701 16.7227C18.776 16.7168 18.7819 16.7139 18.7848 16.708V16.7285V16.7432H18.7877C18.7877 16.7432 18.7877 16.7227 18.7906 16.7227C18.7936 16.7197 18.8111 16.708 18.8141 16.7051C18.817 16.7051 18.8053 16.6934 18.8346 16.6904C18.8346 16.6904 18.8229 16.6904 18.8258 16.6904H18.8317H18.8375H18.8287C18.861 16.667 18.8873 16.6436 18.9195 16.6201C18.9254 16.6172 18.9283 16.6113 18.9342 16.6084C18.9576 16.5908 18.9869 16.5703 19.0133 16.5527H19.0104C19.025 16.541 19.0397 16.5352 19.0572 16.5264C19.0602 16.5264 19.0602 16.5234 19.0602 16.5234C19.0719 16.5176 19.0865 16.5088 19.0983 16.4971C19.0983 16.4971 19.1012 16.4971 19.1012 16.4941C19.1012 16.4941 19.1012 16.4941 19.1012 16.4912L19.1041 16.4854L19.107 16.4795C19.107 16.4795 19.107 16.4795 19.11 16.4795H19.1129C19.1158 16.4795 19.1158 16.4795 19.1188 16.4766C19.1188 16.4766 19.1188 16.4766 19.1217 16.4766C19.1422 16.459 19.1627 16.4414 19.1832 16.4297C19.1832 16.4297 19.1832 16.4209 19.1862 16.4209C19.1891 16.4209 19.1891 16.4268 19.192 16.4268L19.1949 16.4297C19.1979 16.4268 19.2037 16.4268 19.2067 16.4268V16.4238C19.2067 16.4238 19.2067 16.4238 19.2096 16.4238H19.2125H19.2154C19.2184 16.4238 19.2184 16.4209 19.2184 16.4209V16.4238C19.2184 16.4209 19.2242 16.418 19.2301 16.415C19.233 16.4121 19.236 16.4092 19.2389 16.4092L19.2418 16.4062C19.2447 16.4062 19.2447 16.4033 19.2447 16.4033C19.2477 16.4033 19.2477 16.4004 19.2506 16.4004C19.2535 16.4004 19.2535 16.3975 19.2565 16.3975L19.2594 16.3945L19.2623 16.3916C19.2623 16.3916 19.2653 16.3916 19.2653 16.3887C19.2682 16.3887 19.2682 16.3857 19.2711 16.3857C19.277 16.3828 19.2828 16.3799 19.2858 16.377C19.2916 16.374 19.2945 16.3711 19.3004 16.3682C19.3063 16.3652 19.3092 16.3623 19.3151 16.3594C19.318 16.3594 19.318 16.3564 19.3209 16.3564C19.3268 16.3535 19.3297 16.3506 19.3356 16.3477C19.3385 16.3477 19.3385 16.3447 19.3414 16.3447C19.3414 16.3418 19.3444 16.3418 19.3473 16.3418C19.3473 16.3418 19.3473 16.3389 19.3502 16.3389C19.3531 16.3389 19.3561 16.3389 19.359 16.3389C19.3619 16.3359 19.3619 16.3359 19.3649 16.3359C19.3649 16.3359 19.3649 16.3359 19.3678 16.3359C19.3707 16.3359 19.3707 16.333 19.3736 16.333H19.3766C19.3854 16.3301 19.3912 16.3271 19.4 16.3242C19.4088 16.3213 19.4176 16.3154 19.4264 16.3154C19.4293 16.2861 19.4352 16.3066 19.4381 16.3008V16.2979C19.4498 16.2891 19.4615 16.2803 19.4733 16.2773V16.2803V16.2861V16.2832C19.4733 16.2832 19.4733 16.2832 19.4733 16.2861V16.2891C19.4762 16.2891 19.4791 16.2861 19.482 16.2832C19.4879 16.2803 19.4908 16.2744 19.4967 16.2715C19.5172 16.2598 19.5377 16.2451 19.5582 16.2334C19.5611 16.2305 19.5641 16.2275 19.567 16.2275L19.5699 16.2246C19.5699 16.2246 19.5699 16.2246 19.5729 16.2246C19.5758 16.2217 19.5787 16.2217 19.5846 16.2187C19.5904 16.2158 19.5992 16.21 19.6051 16.207C19.611 16.2041 19.6139 16.2012 19.6197 16.1982C19.6197 16.1982 19.6403 16.1982 19.6373 16.1982C19.6344 16.1982 19.6549 16.1982 19.6549 16.1982H19.6373C19.6373 16.1982 19.6432 16.1982 19.6432 16.1953C19.7135 16.1572 19.8014 16.1221 19.86 16.0869V16.1162H19.8424C19.8688 16.0869 19.8981 16.0723 19.9244 16.0576C19.9332 16.0547 19.9508 16.0459 19.9567 16.043C19.9596 16.04 19.9479 16.0371 19.9772 16.0342C19.9772 16.0342 19.9684 16.0312 19.9713 16.0312C19.9742 16.0283 19.9713 16.0283 19.9713 16.0254H19.9684C19.9713 16.0225 19.9742 16.0195 19.9772 16.0195C19.9801 16.0166 19.986 16.0137 19.9889 16.0137C20.0035 16.0049 20.0182 15.999 20.0328 15.9932C20.0328 15.9932 20.0445 15.9932 20.0445 15.9902C20.0475 15.9873 20.0358 15.9873 20.0651 15.9844V15.9375H20.0592C20.068 15.9375 20.0738 15.9404 20.0826 15.9375C20.0826 15.9375 20.0826 15.9404 20.0856 15.9375C20.0885 15.9375 20.0914 15.9375 20.0914 15.9375C20.0973 15.9346 20.1002 15.9346 20.1061 15.9316H20.109C20.1149 15.9287 20.1178 15.9258 20.1237 15.9229H20.1266C20.1412 15.9141 20.1442 15.9082 20.1588 15.9023L20.15 15.9053V15.917C20.15 15.9141 20.1735 15.9111 20.1764 15.9082V15.9053H20.1822C20.1822 15.9053 20.1471 15.9023 20.2057 15.9023H20.194V15.8994C20.194 15.8965 20.194 15.8936 20.194 15.8936L20.191 15.8848H20.1969H20.1998H20.2028C20.2028 15.8848 20.2028 15.8848 20.2057 15.8848H20.2086H20.2115H20.2145C20.2145 15.8848 20.2174 15.8877 20.2174 15.8848H20.2203C20.2233 15.8848 20.2233 15.8848 20.2233 15.8848C20.2233 15.8848 20.2233 15.8848 20.2262 15.8848C20.2262 15.8848 20.2262 15.8848 20.2291 15.8848V15.8818H20.232C20.232 15.8818 20.232 15.8789 20.235 15.8789C20.2379 15.8789 20.2379 15.8789 20.2379 15.876C20.2379 15.876 20.2408 15.876 20.2408 15.873C20.2408 15.873 20.2438 15.873 20.2438 15.8701C20.2467 15.8701 20.2467 15.8672 20.2496 15.8672C20.2555 15.8643 20.2584 15.8613 20.2643 15.8613C20.2643 15.8613 20.2672 15.8613 20.2672 15.8584C20.2672 15.8584 20.2672 15.8584 20.2701 15.8584H20.2731C20.2789 15.8555 20.2819 15.8525 20.2877 15.8525H20.2906H20.2936C20.2965 15.8525 20.2994 15.8525 20.3024 15.8525H20.3053C20.3082 15.8525 20.3112 15.8525 20.3141 15.8525L20.317 15.8467C20.3258 15.8438 20.3375 15.8379 20.3492 15.832C20.3551 15.8291 20.3639 15.8262 20.3727 15.8232C20.3756 15.8232 20.3785 15.8203 20.3815 15.8203C20.3844 15.8203 20.399 15.8174 20.399 15.8174C20.4049 15.8145 20.399 15.8115 20.4283 15.8086V15.8174V15.8203L20.4166 15.8174L20.4108 15.8145L20.4078 15.8115C20.4078 15.8115 20.4049 15.8086 20.402 15.8086H20.4137L20.4254 15.8057V15.8027H20.4195L20.4137 15.7939C20.4195 15.7939 20.4283 15.791 20.4342 15.7881L20.4371 15.791V15.7939H20.4401H20.443C20.4518 15.7939 20.4606 15.7939 20.4694 15.791H20.4723C20.4752 15.7881 20.4869 15.7852 20.4899 15.7852C20.4928 15.7822 20.5074 15.7793 20.5074 15.7793L20.4869 15.7646V15.7705C20.4869 15.7705 20.4869 15.7705 20.4899 15.7705C20.5074 15.7705 20.4899 15.7676 20.4899 15.7676H20.4928H20.4957L20.4986 15.7646C20.4986 15.7646 20.4986 15.7646 20.4957 15.7646C20.4957 15.7646 20.4957 15.7646 20.4986 15.7646C20.4986 15.7646 20.4986 15.7646 20.5016 15.7646H20.5074H20.5104H20.5309C20.5309 15.7617 20.5279 15.7617 20.5309 15.7617C20.5338 15.7617 20.5309 15.7588 20.5367 15.7588C20.5367 15.7588 20.5367 15.7588 20.5397 15.7588C20.5455 15.7559 20.5514 15.7529 20.5602 15.7529H20.5631C20.566 15.7529 20.569 15.75 20.5719 15.75C20.5748 15.75 20.5807 15.7471 20.5836 15.7471C20.5865 15.7471 20.5924 15.7441 20.5983 15.7441H20.6012C20.6041 15.7441 20.607 15.7412 20.61 15.7412C20.6129 15.7412 20.6129 15.7412 20.6158 15.7412C20.6188 15.7412 20.6217 15.7412 20.6246 15.7412H20.6481V15.7295C20.6481 15.7295 20.6334 15.7412 20.6363 15.7412H20.6422C20.6422 15.7412 20.6422 15.7354 20.6422 15.7324C20.6422 15.7295 20.6451 15.7266 20.6451 15.7236C20.6481 15.7178 20.6481 15.7178 20.651 15.7207C20.6539 15.7236 20.6539 15.7236 20.6569 15.7236C20.6598 15.7207 20.6656 15.7178 20.6686 15.7148C20.6715 15.7119 20.6744 15.7148 20.6774 15.7119H20.6803H20.6832C20.692 15.7119 20.7008 15.7119 20.7096 15.7119C20.7272 15.6826 20.7418 15.6973 20.7594 15.6914C20.7653 15.6885 20.7682 15.6855 20.774 15.6855C20.7799 15.6826 20.7828 15.6826 20.7887 15.6797C20.8151 15.6709 20.8444 15.6621 20.8707 15.6533C20.8824 15.6504 20.8942 15.6475 20.9059 15.6445H20.9088C20.9235 15.6387 20.9381 15.6357 20.9557 15.6328C20.9762 15.627 20.9967 15.6211 21.0172 15.6152C21.026 15.6123 21.0348 15.6094 21.0436 15.6094C21.0524 15.6064 21.0611 15.6035 21.0699 15.6006C21.0758 15.5977 21.0817 15.5977 21.0904 15.5947C21.0963 15.5947 21.0992 15.5918 21.1051 15.5918C21.111 15.5889 21.1168 15.5889 21.1227 15.5859C21.1256 15.5859 21.1285 15.583 21.1315 15.583C21.1461 15.5801 21.1637 15.5742 21.1783 15.5713C21.1813 15.5713 21.1842 15.5859 21.1871 15.5859C21.193 15.583 21.1988 15.5977 21.2047 15.5977V15.5801L21.2076 15.5684C21.2135 15.5684 21.2194 15.5625 21.2223 15.5625C21.2311 15.5596 21.2399 15.5566 21.2486 15.5566C21.2633 15.5537 21.275 15.5508 21.2897 15.5479C21.2926 15.5479 21.2955 15.5449 21.2985 15.5449C21.3248 15.5391 21.3483 15.5332 21.3746 15.5273C21.3863 15.5244 21.3981 15.5215 21.4098 15.5215C21.4274 15.5186 21.442 15.5156 21.4596 15.5098C21.4889 15.5039 21.5153 15.498 21.5445 15.4922C21.5621 15.4893 21.5797 15.4863 21.5973 15.4834C21.6061 15.4805 21.6178 15.4805 21.6266 15.4775C21.6354 15.4746 21.6471 15.4746 21.6559 15.4717C21.6735 15.4687 21.691 15.4658 21.7115 15.4629C21.7145 15.4629 21.7203 15.4629 21.7233 15.46C21.7438 15.457 21.7643 15.4541 21.7848 15.4512C21.7906 15.4512 21.7994 15.4482 21.8053 15.4482C21.8287 15.4453 21.8551 15.4395 21.8785 15.4365C21.8873 15.4336 21.899 15.4336 21.9108 15.4336C21.9195 15.4307 21.9313 15.4307 21.9401 15.4307C21.9488 15.4307 21.9576 15.4277 21.9664 15.4277C21.984 15.4248 22.0045 15.4219 22.0221 15.4219C22.0455 15.4189 22.069 15.416 22.0924 15.4131C22.1012 15.4131 22.107 15.4102 22.1158 15.4102C22.1217 15.4102 22.1276 15.4102 22.1334 15.4072C22.1451 15.4072 22.1569 15.4043 22.1686 15.4043C22.1715 15.4043 22.1715 15.4043 22.1744 15.4043C22.1891 15.4014 22.2067 15.4014 22.2213 15.4014C22.236 15.4014 22.2477 15.3984 22.2623 15.3984C22.2653 15.3984 22.2711 15.3984 22.274 15.3984C22.2799 15.3984 22.2828 15.3984 22.2887 15.3984C22.3092 15.3955 22.3297 15.3955 22.3473 15.3955C22.3678 15.3926 22.3912 15.3926 22.4117 15.3926C22.4205 15.3926 22.4264 15.3926 22.4352 15.3896C22.4498 15.3896 22.4615 15.3867 22.4762 15.3867C22.482 15.3867 22.4879 15.3867 22.4938 15.3867C22.6871 15.3779 22.8805 15.375 23.0738 15.3838C23.0826 15.3838 23.0885 15.3838 23.0973 15.3838C23.1178 15.3838 23.1354 15.3867 23.1559 15.3867C23.1647 15.3867 23.1735 15.3867 23.1822 15.3867C23.1852 15.3867 23.1881 15.3867 23.191 15.3867C23.194 15.3867 23.1969 15.3867 23.1998 15.3867C23.2057 15.3867 23.2115 15.3867 23.2203 15.3867C23.2233 15.3867 23.2262 15.3867 23.2291 15.3867C23.232 15.3867 23.235 15.3867 23.2379 15.3867C23.2438 15.3867 23.2496 15.3867 23.2584 15.3867C23.2731 15.3867 23.2877 15.3896 23.3024 15.3896C23.317 15.3896 23.3317 15.3926 23.3463 15.3926C23.3727 15.3955 23.3961 15.3984 23.4195 15.4014C23.4225 15.4014 23.4254 15.4131 23.4283 15.4131C23.4342 15.4131 23.4401 15.4219 23.4459 15.4219H23.5192C23.5719 15.4219 23.6246 15.4248 23.6774 15.4336C23.7037 15.4365 23.7301 15.4365 23.7565 15.4395C23.7828 15.4424 23.8092 15.4453 23.8356 15.4482C23.941 15.4629 24.0465 15.4805 24.152 15.501C24.1549 15.501 24.1578 15.501 24.1637 15.5039C24.1842 15.5068 24.2047 15.5127 24.2252 15.5156C24.2545 15.5215 24.2838 15.5273 24.3131 15.5332C24.3307 15.5361 24.3512 15.542 24.3688 15.5449C24.3805 15.5479 24.3922 15.5508 24.4039 15.5537C24.4332 15.5596 24.4596 15.5684 24.4889 15.5742C24.6207 15.6064 24.7526 15.6445 24.8844 15.6855C24.9108 15.6943 24.943 15.7031 24.9694 15.7119C25.0016 15.7207 25.0338 15.7324 25.066 15.7441C25.0719 15.7471 25.0807 15.75 25.0865 15.75C25.1363 15.7676 25.1862 15.7852 25.236 15.8057C25.2594 15.8145 25.2858 15.8232 25.3092 15.835C25.3502 15.8496 25.3883 15.8672 25.4293 15.8848C25.441 15.8906 25.4528 15.8936 25.4674 15.8994C25.485 15.9053 25.4996 15.9141 25.5172 15.9199C25.5406 15.9287 25.5846 15.9404 25.608 15.9492C25.819 16.043 26.0211 16.1484 26.2555 16.2627V16.2656C26.2555 16.2803 26.2789 16.2949 26.3024 16.3096H26.2936H26.2906H26.2877C26.2936 16.3125 26.2965 16.3154 26.2994 16.3184C26.3024 16.3213 26.3053 16.3242 26.3111 16.3271C26.3346 16.3418 26.361 16.3564 26.3844 16.374C26.3873 16.374 26.3873 16.377 26.3903 16.377C26.3961 16.3799 26.402 16.3828 26.4078 16.3857C26.4283 16.4004 26.4518 16.4121 26.4723 16.4268V16.4326V16.4297H26.4752C26.4752 16.4297 26.4781 16.4297 26.4781 16.4326C26.4811 16.4355 26.484 16.4355 26.4869 16.4385C26.4869 16.4385 26.4899 16.4385 26.4899 16.4414C26.4928 16.4414 26.4928 16.4443 26.4957 16.4443H26.4986C26.5074 16.4502 26.5133 16.4531 26.5221 16.459C26.5397 16.4707 26.5572 16.4824 26.5748 16.4941C26.5924 16.5059 26.61 16.5176 26.6276 16.5293L26.6305 16.5322C26.6334 16.5352 26.6363 16.5381 26.6393 16.541C26.7828 16.6377 26.9352 16.7432 27.0699 16.8516C27.0758 16.8545 27.0699 16.8604 27.0992 16.8633V6.96973C27.1285 6.48047 27.1461 5.99121 27.1285 5.50195ZM4.95959 16.9629H7.85705C8.22033 16.9629 8.48986 17.2559 8.50744 17.6074C8.52209 17.959 8.19689 18.252 7.85705 18.252H4.95959C4.59631 18.252 4.32678 17.959 4.3092 17.6074C4.29455 17.2559 4.61974 16.9629 4.95959 16.9629ZM12.0113 21.5625H4.95959C4.59631 21.5625 4.32678 21.2695 4.3092 20.918C4.29455 20.5664 4.61974 20.2734 4.95959 20.2734H12.0113C12.3746 20.2734 12.6442 20.5664 12.6617 20.918C12.6764 21.2695 12.3512 21.5625 12.0113 21.5625Z" fill="#FF9871"/>
<path d="M23.5 28C26.5376 28 29 25.5376 29 22.5C29 19.4624 26.5376 17 23.5 17C20.4624 17 18 19.4624 18 22.5C18 25.5376 20.4624 28 23.5 28Z" fill="#FF9871"/>
<path d="M23.5 28C26.5376 28 29 25.5376 29 22.5C29 19.4624 26.5376 17 23.5 17C20.4624 17 18 19.4624 18 22.5C18 25.5376 20.4624 28 23.5 28Z" fill="#FF9871" stroke="#FF9871" stroke-miterlimit="10" stroke-linecap="round"/>
<path d="M23 20V24.6667H26.5" stroke="white" stroke-miterlimit="10" stroke-linecap="round" stroke-linejoin="round"/>
</svg>
