<svg width="32" height="24" viewBox="0 0 32 24" fill="none" xmlns="http://www.w3.org/2000/svg">
<path opacity="0.587821" fill-rule="evenodd" clip-rule="evenodd" d="M6.66602 5.33333C6.66602 8.27885 9.05383 10.6667 11.9993 10.6667C14.9449 10.6667 17.3327 8.27885 17.3327 5.33333C17.3327 2.38781 14.9449 0 11.9993 0C9.05383 0 6.66602 2.38781 6.66602 5.33333ZM20 10.666C20 12.8752 21.7909 14.666 24 14.666C26.2091 14.666 28 12.8752 28 10.666C28 8.45688 26.2091 6.66602 24 6.66602C21.7909 6.66602 20 8.45688 20 10.666Z" fill="#8280FF"/>
<path fill-rule="evenodd" clip-rule="evenodd" d="M11.9778 13.334C5.68255 13.334 0.517678 16.5693 0.000868912 22.9329C-0.0272823 23.2796 0.635616 24.0007 0.970003 24.0007H22.9956C23.9972 24.0007 24.0128 23.1946 23.9972 22.934C23.6065 16.3916 18.3616 13.334 11.9778 13.334ZM31.2759 24.002H26.1335V24.0013C26.1335 21.0003 25.142 18.2309 23.4689 16.0028C28.0112 16.0522 31.7202 18.3486 31.9993 23.202C32.0105 23.3974 31.9993 24.002 31.2759 24.002Z" fill="#8280FF"/>
</svg>
